<?xml version="1.0" encoding="utf-8"?>
<!-- Generator: Adobe Illustrator 19.2.1, SVG Export Plug-In . SVG Version: 6.00 Build 0)  -->
<svg version="1.1" id="Layer_1" xmlns="http://www.w3.org/2000/svg" xmlns:xlink="http://www.w3.org/1999/xlink" x="0px" y="0px"
	 viewBox="0 0 32 32" style="enable-background:new 0 0 32 32;" xml:space="preserve">
<path d="M30.4,19.1v10.6h-6.2v-9.9c0-2.5-0.9-4.2-3.1-4.2c-1.7,0-2.7,1.1-3.2,2.3c-0.2,0.4-0.2,0.9-0.2,1.5v10.4h-6.2
	c0,0,0.1-16.8,0-18.6h6.2v2.6c0,0,0,0,0,0.1h0v-0.1c0.8-1.3,2.3-3.1,5.6-3.1C27.4,10.8,30.4,13.4,30.4,19.1L30.4,19.1z M5.1,2.2
	C3,2.2,1.6,3.6,1.6,5.4c0,1.8,1.3,3.2,3.4,3.2h0c2.2,0,3.5-1.4,3.5-3.2C8.5,3.6,7.2,2.2,5.1,2.2L5.1,2.2z M2,29.8h6.2V11.2H2V29.8z"
	/>
</svg>
